<svg id="visual" viewBox="0 0 900 600" width="900" height="600" xmlns="http://www.w3.org/2000/svg" xmlns:xlink="http://www.w3.org/1999/xlink" version="1.1"><path d="M0 169L13.7 174C27.3 179 54.7 189 82 202C109.3 215 136.7 231 163.8 240C191 249 218 251 245.2 247C272.3 243 299.7 233 327 223C354.3 213 381.7 203 409 184C436.3 165 463.7 137 491 128C518.3 119 545.7 129 573 145C600.3 161 627.7 183 654.8 175C682 167 709 129 736.2 129C763.3 129 790.7 167 818 171C845.3 175 872.7 145 886.3 130L900 115L900 0L886.3 0C872.7 0 845.3 0 818 0C790.7 0 763.3 0 736.2 0C709 0 682 0 654.8 0C627.7 0 600.3 0 573 0C545.7 0 518.3 0 491 0C463.7 0 436.3 0 409 0C381.7 0 354.3 0 327 0C299.7 0 272.3 0 245.2 0C218 0 191 0 163.8 0C136.7 0 109.3 0 82 0C54.7 0 27.3 0 13.7 0L0 0Z" fill="#6198ff"></path><path d="M0 223L13.7 228C27.3 233 54.7 243 82 261C109.3 279 136.7 305 163.8 317C191 329 218 327 245.2 319C272.3 311 299.7 297 327 288C354.3 279 381.7 275 409 257C436.3 239 463.7 207 491 192C518.3 177 545.7 179 573 196C600.3 213 627.7 245 654.8 247C682 249 709 221 736.2 225C763.3 229 790.7 265 818 259C845.3 253 872.7 205 886.3 181L900 157L900 113L886.3 128C872.7 143 845.3 173 818 169C790.7 165 763.3 127 736.2 127C709 127 682 165 654.8 173C627.7 181 600.3 159 573 143C545.7 127 518.3 117 491 126C463.7 135 436.3 163 409 182C381.7 201 354.3 211 327 221C299.7 231 272.3 241 245.2 245C218 249 191 247 163.8 238C136.7 229 109.3 213 82 200C54.7 187 27.3 177 13.7 172L0 167Z" fill="#3c80ff"></path><path d="M0 451L13.7 443C27.3 435 54.7 419 82 417C109.3 415 136.7 427 163.8 427C191 427 218 415 245.2 423C272.3 431 299.7 459 327 450C354.3 441 381.7 395 409 389C436.3 383 463.7 417 491 424C518.3 431 545.7 411 573 403C600.3 395 627.7 399 654.8 398C682 397 709 391 736.2 399C763.3 407 790.7 429 818 441C845.3 453 872.7 455 886.3 456L900 457L900 155L886.3 179C872.7 203 845.3 251 818 257C790.7 263 763.3 227 736.2 223C709 219 682 247 654.8 245C627.7 243 600.3 211 573 194C545.7 177 518.3 175 491 190C463.7 205 436.3 237 409 255C381.7 273 354.3 277 327 286C299.7 295 272.3 309 245.2 317C218 325 191 327 163.8 315C136.7 303 109.3 277 82 259C54.7 241 27.3 231 13.7 226L0 221Z" fill="#0066ff"></path><path d="M0 517L13.7 514C27.3 511 54.7 505 82 501C109.3 497 136.7 495 163.8 494C191 493 218 493 245.2 501C272.3 509 299.7 525 327 519C354.3 513 381.7 485 409 481C436.3 477 463.7 497 491 508C518.3 519 545.7 521 573 519C600.3 517 627.7 511 654.8 503C682 495 709 485 736.2 485C763.3 485 790.7 495 818 501C845.3 507 872.7 509 886.3 510L900 511L900 455L886.3 454C872.7 453 845.3 451 818 439C790.7 427 763.3 405 736.2 397C709 389 682 395 654.8 396C627.7 397 600.3 393 573 401C545.7 409 518.3 429 491 422C463.7 415 436.3 381 409 387C381.7 393 354.3 439 327 448C299.7 457 272.3 429 245.2 421C218 413 191 425 163.8 425C136.7 425 109.3 413 82 415C54.7 417 27.3 433 13.7 441L0 449Z" fill="#0059dd"></path><path d="M0 601L13.7 601C27.3 601 54.7 601 82 601C109.3 601 136.7 601 163.8 601C191 601 218 601 245.2 601C272.3 601 299.7 601 327 601C354.3 601 381.7 601 409 601C436.3 601 463.7 601 491 601C518.3 601 545.7 601 573 601C600.3 601 627.7 601 654.8 601C682 601 709 601 736.2 601C763.3 601 790.7 601 818 601C845.3 601 872.7 601 886.3 601L900 601L900 509L886.3 508C872.7 507 845.3 505 818 499C790.7 493 763.3 483 736.2 483C709 483 682 493 654.8 501C627.7 509 600.3 515 573 517C545.7 519 518.3 517 491 506C463.7 495 436.3 475 409 479C381.7 483 354.3 511 327 517C299.7 523 272.3 507 245.2 499C218 491 191 491 163.8 492C136.7 493 109.3 495 82 499C54.7 503 27.3 509 13.7 512L0 515Z" fill="#004cbb"></path></svg>